<svg width="45" height="44" viewBox="0 0 45 44" fill="none" xmlns="http://www.w3.org/2000/svg">
<path d="M21.9776 41.1801H3.39962C5.561 38.4365 6.73159 35.0429 6.72137 31.5502V1.6472H35.3822V17.4163C35.3822 17.8711 35.7509 18.2399 36.2058 18.2399C36.6606 18.2399 37.0294 17.8711 37.0294 17.4163V0.823601C37.0295 0.368683 36.6607 -0.00012204 36.2058 3.02942e-08H5.89776C5.44285 -0.00012204 5.07403 0.368683 5.07416 0.823601L5.07416 31.5502C5.08439 35.2545 3.61227 38.809 0.985907 41.4214C0.750342 41.6569 0.679869 42.0111 0.807334 42.3189C0.934813 42.6266 1.23511 42.8273 1.56823 42.8273H21.9776C22.4325 42.8273 22.8012 42.4585 22.8012 42.0037C22.8012 41.5488 22.4325 41.1801 21.9776 41.1801Z" fill="#707070"/>
<path d="M30.4984 6.50293H11.6049C11.1501 6.50293 10.7814 6.87167 10.7814 7.32654C10.7814 7.78137 11.1501 8.15012 11.6049 8.15012H30.4984C30.9533 8.15012 31.322 7.78137 31.322 7.32654C31.322 6.87167 30.9533 6.50293 30.4984 6.50293Z" fill="#707070"/>
<path d="M31.322 13.9662C31.3221 13.5113 30.9533 13.1424 30.4984 13.1426H11.6049C11.1501 13.1426 10.7814 13.5113 10.7814 13.9662C10.7814 14.4211 11.1501 14.7898 11.6049 14.7898H30.4984C30.9533 14.7899 31.3221 14.4211 31.322 13.9662Z" fill="#707070"/>
<path d="M23.1101 20.6058C23.1102 20.1509 22.7414 19.7822 22.2865 19.7822H11.6051C11.1502 19.7822 10.7815 20.151 10.7815 20.6058C10.7815 21.0607 11.1502 21.4294 11.6051 21.4294H22.2865C22.7414 21.4296 23.1102 21.0608 23.1101 20.6058Z" fill="#707070"/>
<path d="M11.6051 26.4229C11.1502 26.4229 10.7815 26.7916 10.7815 27.2465C10.7815 27.7013 11.1502 28.0701 11.6051 28.0701H18.323C18.7778 28.0701 19.1466 27.7013 19.1466 27.2465C19.1466 26.7916 18.7778 26.4229 18.323 26.4229H11.6051Z" fill="#707070"/>
<path d="M41.0746 25.7153C38.2664 22.902 34.1239 21.8893 30.3345 23.0896C26.5451 24.2899 23.7412 27.5029 23.0648 31.4199L22.4104 30.7655C22.0887 30.4438 21.5673 30.4438 21.2457 30.7655C20.9241 31.0871 20.9241 31.6085 21.2457 31.9301L23.141 33.8252C23.4633 34.146 23.9844 34.146 24.3067 33.8252L26.2023 31.9301C26.5239 31.6085 26.5239 31.087 26.2023 30.7654C25.8807 30.4438 25.3593 30.4438 25.0377 30.7654L24.8506 30.9525C25.8919 27.0152 29.4494 24.2695 33.522 24.2599C37.5946 24.2503 41.1651 26.9792 42.2248 30.9115C43.2846 34.8438 41.5691 38.9974 38.0432 41.0356C34.5175 43.0739 30.0619 42.4878 27.1831 39.6071C26.8615 39.2855 26.3401 39.2855 26.0185 39.6071C25.6969 39.9286 25.6969 40.4501 26.0185 40.7717C30.1762 44.9293 36.9172 44.9292 41.0748 40.7715C45.2324 36.6138 45.2323 29.8729 41.0746 25.7153Z" fill="#707070"/>
<path d="M33.5467 25.2871C33.0917 25.287 32.723 25.6558 32.723 26.1108V32.4181C32.7244 32.6366 32.8113 32.8459 32.9651 33.0011L35.9499 35.9859C36.2715 36.3076 36.793 36.3076 37.1146 35.986C37.4362 35.6644 37.4362 35.1429 37.1146 34.8213L34.3704 32.0771V26.1107C34.3705 25.6558 34.0016 25.287 33.5467 25.2871Z" fill="#707070"/>
</svg>
