<svg width="100" height="84" viewBox="0 0 100 84" fill="none" xmlns="http://www.w3.org/2000/svg">
<mask id="mask0_1_3123" style="mask-type:alpha" maskUnits="userSpaceOnUse" x="0" y="0" width="99" height="84">
<path d="M0 10C0 4.47715 4.47715 0 10 0H89C94.5229 0 99 4.47715 99 10V74C99 79.5228 94.5229 84 89 84H10C4.47715 84 0 79.5229 0 74V10Z" fill="#FEF9FA"/>
</mask>
<g mask="url(#mask0_1_3123)">
<path fill-rule="evenodd" clip-rule="evenodd" d="M7.15418 35.8267L0.969573 36.4556C0.270743 36.5954 1.42381 36.3158 0.759925 36.5255L4.88299 80.2021L91.5374 71.5716C91.4325 69.1606 90.8735 64.9327 90.5939 62.1724C90.4542 60.6699 93.3194 50.1526 93.8085 48.2308C94.2278 46.5536 99.1546 27.1263 99.2943 25.9383C98.5955 25.5539 57.7491 15.5258 57.0853 15.3511C56.2467 15.1414 15.8546 4.90362 14.8063 4.93857L7.15418 35.8616V35.8267Z" fill="#86CB70"/>
<path fill-rule="evenodd" clip-rule="evenodd" d="M9.28564 45.4709L85.3179 64.3042L94.3677 27.8605L18.2655 8.99219L9.28564 45.4709Z" fill="#527844"/>
<path fill-rule="evenodd" clip-rule="evenodd" d="M55.5479 54.7995L83.8503 61.7878L91.8518 29.3972L63.5145 22.374C63.6542 22.5837 63.5494 22.4439 63.7241 22.6186L65.9604 24.8898C71.6558 31.4937 71.551 41.9411 66.0302 48.3703L64.353 50.0825C62.9554 51.6199 60.1601 53.1922 58.1335 53.926L55.5479 54.7995Z" fill="#86CB70"/>
<path fill-rule="evenodd" clip-rule="evenodd" d="M11.8013 43.9326L40.1037 50.9557C39.8941 50.6413 40.1386 50.9208 39.8941 50.6762L38.3916 49.3135C36.924 47.7411 35.3866 45.0856 34.583 43.059C33.1853 39.53 33.1154 35.1623 34.1986 31.4935C34.6529 29.9211 35.4915 28.0692 36.2951 26.8463C41.1519 19.5086 46.8823 19.3339 48.2101 18.5652L19.9426 11.542L11.8712 43.9326H11.8013Z" fill="#86CB70"/>
<path fill-rule="evenodd" clip-rule="evenodd" d="M62.4312 61.9976C62.3613 62.347 61.9769 63.0109 61.8022 63.3603C61.6275 63.6747 61.5227 63.7446 61.348 64.0242C61.1034 64.3736 61.2432 64.3386 60.9287 64.688C64.1433 64.9326 67.7772 65.5266 70.9918 65.9459C72.634 66.1556 74.3112 66.3652 75.9534 66.5749C76.792 66.6797 77.6656 66.7845 78.5041 66.8894C79.0632 66.9592 80.4958 67.0641 80.8801 67.3086L55.5128 69.8244C55.5477 69.7895 55.5827 69.7545 55.5827 69.7545C56.6309 68.9159 57.3647 68.6364 58.4479 67.4833C59.2515 66.6448 59.2166 66.8544 60.0901 65.7712C60.4046 65.3869 60.6142 65.2471 60.8937 64.688L54.5344 63.8844C53.9055 63.8145 52.7175 63.7796 52.6127 63.5L52.2632 63.6747C50.6559 65.3519 49.4679 65.3519 48.2799 65.911C48.1052 65.9809 48.1402 65.9809 48.0354 66.0508L48.2799 68.6015L46.6726 68.7412L46.4281 66.3303C45.3798 66.1905 43.8075 66.4351 42.4447 66.2255C41.6062 66.1206 39.894 65.7363 39.3 65.317C39.3699 64.7929 39.5097 64.1639 39.6494 63.6049C39.894 62.5916 39.7892 62.2422 40.2435 62.0325C40.2085 62.0325 40.1736 61.9976 40.1386 61.9976L34.4432 61.2638C32.9407 61.0891 30.1454 60.8794 28.8526 60.53C29.2369 61.7879 30.0755 63.2205 30.7045 64.1639C31.613 65.4917 33.3251 67.5532 34.6528 68.4617C35.177 68.8461 35.6312 69.2304 36.2601 69.5798L39.8242 71.3968L10.753 74.2619L9.14571 58.0842C9.25054 56.8263 8.93607 55.2888 8.83124 54.2057C8.76136 53.6117 8.72642 52.8429 8.69148 52.249C8.6216 51.5501 8.34207 50.9212 8.30712 50.3971L8.16736 48.4753L6.10583 47.9512C6.03594 48.5102 8.72642 75.9741 8.97101 76.603L86.8202 68.8111L86.7852 68.0773C86.1213 67.693 76.3029 65.4218 74.6955 65.0375C70.6074 64.0242 66.4843 62.906 62.4312 61.9976Z" fill="#527844"/>
<path fill-rule="evenodd" clip-rule="evenodd" d="M28.8529 60.5648L22.6683 59.831C21.7598 60.3552 21.061 60.9142 19.5585 60.6347C18.3006 60.425 17.7416 59.7612 17.1126 59.0623L9.146 58.084L10.7533 74.2618L39.8244 71.3966L36.2604 69.5797C35.6315 69.1953 35.1773 68.811 34.6531 68.4615C33.3603 67.588 31.6132 65.4915 30.7048 64.1638C30.0758 63.2204 29.2372 61.7878 28.8529 60.5299V60.5648Z" fill="#86CB70"/>
<path fill-rule="evenodd" clip-rule="evenodd" d="M54.0455 24.4703C46.4632 24.0859 43.4233 31.3537 48.8742 36.2106C49.3284 36.6298 50.4116 37.2588 50.7261 37.713L48.8742 45.1555C47.1271 45.2254 44.192 42.9193 43.4932 42.2205C43.0739 42.6048 42.0257 44.4916 41.6763 45.0507C43.4233 47.2171 46.8476 47.7761 48.0006 48.4051C47.8958 49.1388 47.4416 50.1521 47.5464 50.7811L49.0489 51.1305L49.6429 48.5798C54.2202 48.8593 57.1203 47.1472 57.9939 43.3036C58.7276 40.089 57.1902 37.8877 55.1287 36.1756C54.6395 35.7913 53.6611 34.9177 53.1021 34.7081L54.7443 27.8596C56.4914 28.0343 58.3782 29.5717 59.2168 30.2705C59.5313 29.9561 60.7892 27.9994 60.9988 27.5801C60.6494 26.9861 59.4264 26.2872 58.6228 25.833C57.295 25.0992 56.8408 25.1342 55.9323 24.7848L55.5829 24.6101L56.0022 22.7582L54.4997 22.3389L53.9407 24.4353L54.0455 24.4703Z" fill="white"/>
<path fill-rule="evenodd" clip-rule="evenodd" d="M8.30713 50.3975C8.34207 50.9216 8.6216 51.5505 8.69148 52.2493C8.72642 52.8433 8.76136 53.6121 8.83125 54.2061C8.93607 55.3242 9.28548 56.8267 9.14572 58.0845L17.1123 59.0629L16.8328 58.6436C16.7629 58.5038 16.6581 58.2942 16.6231 58.1195C16.5183 57.7351 16.4135 57.3508 16.4484 56.9664C16.4834 52.424 22.5282 51.7951 23.856 55.6386C24.3801 57.1062 23.9608 58.6785 22.7728 59.7268C22.7728 59.7268 22.7379 59.7617 22.7029 59.7966L28.8875 60.5304C28.2586 59.3774 27.4899 55.0097 27.6646 53.7169C27.7345 53.2277 27.4899 53.5072 27.8742 53.3325C27.2453 53.053 9.35537 48.6504 8.76136 48.6504L8.51677 50.5023C8.41195 50.2227 8.55171 50.5023 8.34207 50.3625L8.30713 50.3975Z" fill="#5C8C4E"/>
<path fill-rule="evenodd" clip-rule="evenodd" d="M28.8527 60.5651C30.1805 60.9494 32.9408 61.1241 34.4433 61.2989L40.1387 62.0326C40.1737 62.0326 40.2086 62.0326 40.2435 62.0676C41.2568 62.7664 43.9473 63.2206 45.345 63.1507C45.939 63.1158 45.9739 63.2206 46.0089 62.8013L45.5197 57.8047L27.7695 53.3672C27.3851 53.5419 27.6297 53.2624 27.5599 53.7515C27.3502 55.0094 28.1539 59.412 28.7828 60.5651H28.8527Z" fill="#3A5230"/>
<path fill-rule="evenodd" clip-rule="evenodd" d="M60.9288 64.6885C60.6493 65.2475 60.4396 65.4222 60.1252 65.7717C59.2516 66.8548 59.2866 66.6452 58.4829 67.4838C57.3648 68.6718 56.666 68.9164 55.6177 69.755C55.5828 69.755 55.5479 69.7899 55.5479 69.8248L80.9152 67.3091C80.5309 67.0645 79.0633 66.9596 78.5392 66.8898C77.7006 66.785 76.8271 66.6801 75.9885 66.5753C74.3463 66.3657 72.6691 66.156 71.0268 65.9464C67.7773 65.5271 64.1783 64.9331 60.9638 64.6885H60.9288Z" fill="#86CB70"/>
<path fill-rule="evenodd" clip-rule="evenodd" d="M73.8919 38.9014C68.8254 40.0195 70.5375 47.5319 75.5341 46.309C80.356 45.1559 78.6089 37.8532 73.8919 38.9014Z" fill="#527844"/>
<path fill-rule="evenodd" clip-rule="evenodd" d="M25.9525 26.9169C24.8344 27.0916 24.2055 27.6157 23.5765 28.3145C22.9825 28.9784 22.5982 30.1315 22.8078 31.3195C23.1223 33.2063 24.9043 34.8485 27.2104 34.4642C29.0623 34.1497 30.6696 32.3328 30.2852 30.0266C30.1804 29.5025 29.9708 29.0483 29.7611 28.6639C29.4816 28.2097 29.3069 28.035 28.8527 27.6856C28.1538 27.1265 27.1056 26.7072 25.9176 26.8819L25.9525 26.9169Z" fill="#527844"/>
<path fill-rule="evenodd" clip-rule="evenodd" d="M17.1124 59.063C17.7763 59.7618 18.3004 60.3908 19.5583 60.6354C21.0608 60.9149 21.7246 60.3558 22.6681 59.8317C22.703 59.7968 22.7379 59.7968 22.7379 59.7618C23.9259 58.7136 24.3452 57.1412 23.8211 55.6737C22.4933 51.7952 16.4485 52.4591 16.4136 57.0015C16.4136 57.4208 16.4835 57.7702 16.5883 58.1545C16.6582 58.3292 16.728 58.5389 16.7979 58.6786L17.0775 59.0979L17.1124 59.063Z" fill="#3A5230"/>
<path fill-rule="evenodd" clip-rule="evenodd" d="M52.3333 63.6747L46.0788 62.8011C46.0439 63.2204 46.009 63.1156 45.415 63.1506C43.9824 63.2204 41.2919 62.7313 40.3135 62.0674C39.8593 62.277 39.9292 62.5915 39.7195 63.6397C39.5798 64.1988 39.44 64.8277 39.3701 65.3519C39.9641 65.7712 41.6762 66.1555 42.5148 66.2603C43.8775 66.435 45.415 66.1905 46.4981 66.3652L46.7427 68.7761L48.35 68.6363L48.1054 66.0856C48.2103 66.0157 48.2103 66.0157 48.35 65.9459C49.5031 65.3868 50.6911 65.4217 52.3333 63.7096V63.6747Z" fill="white"/>
<path fill-rule="evenodd" clip-rule="evenodd" d="M54.1502 60.041C54.1502 61.5086 53.1369 62.6616 52.6826 63.5002C52.7525 63.7448 53.9754 63.7797 54.6044 63.8846L60.9637 64.6882C61.2782 64.3039 61.1384 64.3738 61.383 64.0243C61.5577 63.7448 61.6625 63.6749 61.8372 63.3604C62.0119 63.011 62.3963 62.3821 62.4662 61.9977C61.8722 61.6833 59.1468 61.1242 58.2732 60.9146C57.5395 60.7399 56.9105 60.5651 56.1768 60.3904C55.5827 60.2507 54.4996 59.8314 54.1502 60.041Z" fill="#3A5230"/>
<path fill-rule="evenodd" clip-rule="evenodd" d="M46.0788 62.8013L52.3333 63.6748L52.6827 63.5001C53.1369 62.6615 54.1502 61.5085 54.1502 60.0409C53.696 59.5867 52.7176 59.5168 52.0887 59.3771C51.6694 59.2722 50.3416 58.7132 50.0621 59.0626C50.132 59.971 49.9922 60.8795 49.4681 61.4735C49.0488 61.9278 48.4199 62.4868 47.721 62.6615L47.2668 58.2939C47.0222 58.0842 46.1137 57.8396 45.5547 57.8047L46.0439 62.8013H46.0788Z" fill="#AEAEAE"/>
<path fill-rule="evenodd" clip-rule="evenodd" d="M50.5513 45.4008C54.0803 45.1911 54.5695 41.9765 53.696 40.4042C53.3466 39.7403 52.8923 39.0415 52.1935 38.7969L50.5862 45.4008H50.5513Z" fill="#527844"/>
<path fill-rule="evenodd" clip-rule="evenodd" d="M51.7395 33.4506L53.207 27.7901C51.7744 27.7202 50.6913 28.8733 50.3768 29.9914C49.9225 31.5987 50.9708 32.9614 51.7395 33.4506Z" fill="#527844"/>
<path fill-rule="evenodd" clip-rule="evenodd" d="M50.0621 59.0624C49.8874 58.6431 50.132 58.9226 49.6079 58.7479C49.4332 58.678 49.1187 58.6431 48.9091 58.5732C48.315 58.4335 47.8958 58.2238 47.3018 58.2587L47.756 62.6264C48.4548 62.4168 49.0838 61.8926 49.5031 61.4384C50.0272 60.8444 50.1669 59.9359 50.0971 59.0275L50.0621 59.0624Z" fill="#3A5230"/>
</g>
</svg>
