<svg width="99" height="86" viewBox="0 0 99 86" fill="none" xmlns="http://www.w3.org/2000/svg">
<mask id="mask0_1_3095" style="mask-type:alpha" maskUnits="userSpaceOnUse" x="1" y="0" width="98" height="86">
<path d="M1 10C1 4.47715 5.47715 0 11 0H89C94.5229 0 99 4.47715 99 10V76C99 81.5229 94.5229 86 89 86H11C5.47715 86 1 81.5229 1 76V10Z" fill="#FEF9FA"/>
</mask>
<g mask="url(#mask0_1_3095)">
<path fill-rule="evenodd" clip-rule="evenodd" d="M0.579102 39.2548C0.579102 44.6484 3.91333 48.0807 7.34558 53.2781L23.4282 77.5982C26.2721 82.0111 27.4489 85.2473 36.0786 85.2473C44.218 85.2473 85.8955 85.8357 90.7007 84.7569C92.2697 84.3647 93.2504 83.7763 94.4272 82.8937C96.2904 81.5208 98.5459 78.6769 98.644 75.735C98.9381 69.8511 98.4478 62.3982 98.644 56.4162L98.742 43.7658C98.5459 40.2355 98.3497 37.3916 94.7214 34.6458C91.0929 31.9 88.2491 32.1942 82.1691 32.1942C81.7768 30.6251 72.9509 16.3077 71.9703 14.7386C69.4206 10.6199 67.2632 5.32442 63.2425 2.57861C56.2799 -2.22657 49.0232 4.2457 41.5702 8.65864C38.236 10.718 6.07077 29.7426 3.91333 31.9981C2.05005 33.8613 0.677155 36.2149 0.677155 39.1568L0.579102 39.2548Z" fill="#333333"/>
<path fill-rule="evenodd" clip-rule="evenodd" d="M34.3134 83.286H87.6607C93.1523 83.286 96.9769 79.6575 97.1729 74.1659C97.3691 67.9878 97.1729 61.6136 97.1729 55.4355H24.8992C24.8992 61.6136 24.703 68.0859 24.8992 74.0679C25.0953 79.4614 28.8217 83.286 34.3134 83.286Z" fill="#F9F9F9"/>
<path fill-rule="evenodd" clip-rule="evenodd" d="M23.3301 73.9694C23.5262 68.5759 22.7417 43.1771 23.9185 39.6467C24.8991 36.8029 26.9585 34.6454 29.4101 33.4686C33.2346 31.7035 46.4734 32.3899 51.7689 32.3899C59.516 32.3899 67.2631 32.3899 75.0103 32.3899C73.9316 29.448 70.107 25.9177 70.6954 23.8583C72.3625 23.9564 72.4606 25.0351 74.2258 27.879C75.0103 29.2519 76.2851 31.4093 77.0696 32.3899L80.3058 32.488C79.8154 30.4286 68.4399 12.4828 66.4786 9.05052C64.9096 6.30469 63.3405 4.04919 59.9083 3.06856C54.7108 1.59758 48.1405 6.79503 42.5508 10.2273L11.4642 29.0557C8.81648 30.6248 5.87456 32.1938 4.10939 34.2532C2.14806 36.6067 1.65776 40.5293 3.12874 43.7655L23.3301 73.9694Z" fill="#F43735"/>
<path fill-rule="evenodd" clip-rule="evenodd" d="M24.8994 43.6682H97.1732C96.879 34.1559 89.9164 34.0579 84.0325 34.0579H38.6285C34.902 34.0579 31.5678 33.5675 28.9201 35.6269C26.5665 37.3921 25.0956 39.3534 24.9975 43.6682H24.8994Z" fill="#F9F9F9"/>
<path fill-rule="evenodd" clip-rule="evenodd" d="M9.40468 47.0996C9.6989 44.8441 5.48207 42.4905 6.95305 38.1757C7.83565 35.4299 10.9737 34.3512 13.5234 32.7821L24.7028 25.9176C26.0757 25.1331 27.8409 24.6427 27.9389 22.8776C26.3699 22.4853 21.957 25.8195 19.7996 27.0944C17.0537 28.6634 14.406 30.3305 11.7582 31.9976C7.83565 34.4492 2.73628 36.9008 6.07051 43.7654C7.05113 45.8247 7.73759 47.2957 9.30662 47.0996H9.40468Z" fill="#333333"/>
<path d="M82.3652 67.7919C82.3652 67.4128 82.6726 67.1055 83.0517 67.1055H90.9949C91.3741 67.1055 91.6814 67.4128 91.6814 67.7919C91.6814 68.171 91.3741 68.4784 90.9949 68.4784H83.0517C82.6726 68.4784 82.3652 68.171 82.3652 67.7919Z" fill="#434242"/>
<path d="M82.3652 71.6161C82.3652 71.237 82.6726 70.9297 83.0517 70.9297H90.9949C91.3741 70.9297 91.6814 71.237 91.6814 71.6161C91.6814 71.9953 91.3741 72.3026 90.9949 72.3026H83.0517C82.6726 72.3026 82.3652 71.9953 82.3652 71.6161Z" fill="#434242"/>
<path d="M82.3652 75.4413C82.3652 75.0622 82.6726 74.7549 83.0517 74.7549H90.9949C91.3741 74.7549 91.6814 75.0622 91.6814 75.4413C91.6814 75.8205 91.3741 76.1278 90.9949 76.1278H83.0517C82.6726 76.1278 82.3652 75.8205 82.3652 75.4413Z" fill="#434242"/>
<circle cx="55.0053" cy="67.89" r="8.53164" fill="#FFC601"/>
<circle cx="39.2167" cy="67.89" r="8.53164" fill="#F43735"/>
</g>
</svg>
