<svg width="44" height="44" viewBox="0 0 44 44" fill="none" xmlns="http://www.w3.org/2000/svg">
<path d="M21.9455 43.3273C10.1191 43.3273 0.53186 33.7401 0.53186 21.9136C0.53186 10.0872 10.1191 0.5 21.9455 0.5C33.7719 0.5 43.3591 10.0872 43.3591 21.9136C43.3497 33.7361 33.768 43.3178 21.9455 43.3273ZM8.66904 36.4749C16.1842 43.3519 27.7068 43.3519 35.2219 36.4749C34.0399 33.7682 30.5795 32.3292 27.7871 31.1815C24.9948 30.0337 24.5151 28.4234 24.5151 27.0529C24.5389 25.6779 25.1127 24.3698 26.1083 23.4212C27.3942 22.2752 28.1088 20.6203 28.0612 18.8986C28.1719 17.2187 27.5732 15.5694 26.4108 14.3517C25.2484 13.1339 23.6287 12.4592 21.9455 12.4916C20.2715 12.456 18.6614 13.1342 17.5174 14.3567C16.3733 15.5792 15.8033 17.2307 15.9497 18.8986C15.8617 20.6065 16.5401 22.2646 17.7998 23.4212C18.7891 24.3727 19.3566 25.6804 19.3759 27.0529C19.3759 28.4234 18.999 29.9652 16.2238 31.0958C13.4486 32.2264 9.85107 33.7511 8.66904 36.4749ZM21.9455 10.7785C24.084 10.7422 26.1415 11.596 27.6261 13.1357C29.1106 14.6755 29.8887 16.7628 29.7743 18.8986C29.8282 21.1138 28.9001 23.2395 27.2389 24.706C26.612 25.3287 26.2499 26.1695 26.2282 27.0529C26.2282 27.8067 26.2282 28.6632 28.3011 29.5198C31.1791 30.7189 34.8451 32.2436 36.4896 35.1901C43.6585 27.3234 43.283 15.1851 35.6417 7.77646C28.0004 0.367846 15.8563 0.367847 8.21499 7.77647C0.573687 15.1851 0.198249 27.3234 7.3671 35.1901C9.09731 32.2436 12.6948 30.7189 15.4357 29.6225C17.6628 28.6632 17.6628 27.7724 17.6628 27.0529C17.6549 26.1767 17.3116 25.3368 16.7034 24.706C15.0637 23.2296 14.1607 21.1037 14.2366 18.8986C14.0764 16.7718 14.8226 14.6765 16.2911 13.1297C17.7595 11.583 19.8133 10.729 21.9455 10.7785Z" fill="#707070" stroke="#999999" stroke-width="0.25"/>
</svg>
