<svg width="18" height="22" viewBox="0 0 18 22" fill="none" xmlns="http://www.w3.org/2000/svg">
<g id="icAccountLogout">
<g id="Vector Smart Object">
<g id="Group 7">
<path id="Path 11" d="M8.99303 0.826341C8.6202 0.830182 8.32095 1.13677 8.325 1.51114V1.51814V6.94047C8.31983 7.31483 8.61773 7.62255 8.99055 7.62775C9.36315 7.63317 9.66982 7.33404 9.675 6.95967C9.675 6.95334 9.675 6.94679 9.675 6.94047V1.51814C9.68265 1.14377 9.38677 0.834023 9.01417 0.826341C9.00697 0.826115 9 0.826115 8.99303 0.826341ZM11.6579 3.53028C11.2851 3.52598 10.9791 3.82579 10.9748 4.20016C10.971 4.51262 11.1807 4.78712 11.482 4.86484C14.4871 5.89893 16.65 8.76033 16.65 12.1369C16.65 16.3873 13.2329 19.8185 9 19.8185C4.76708 19.8185 1.35 16.3873 1.35 12.1369C1.35 8.76033 3.51293 5.89893 6.51803 4.86484C6.8724 4.74849 7.06568 4.36577 6.9498 4.00992C6.85327 3.71328 6.56775 3.52124 6.25793 3.54451C6.19762 3.55061 6.13845 3.56484 6.08197 3.58676C2.54272 4.80497 0 8.17834 0 12.1369C0 17.12 4.0374 21.1741 9 21.1741C13.9626 21.1741 18 17.12 18 12.1369C18 8.17834 15.4573 4.80497 11.918 3.58676C11.8359 3.55083 11.7475 3.53163 11.6579 3.53028Z" fill="white"/>
</g>
</g>
</g>
</svg>
