<svg width="30" height="35" viewBox="0 0 30 35" fill="none" xmlns="http://www.w3.org/2000/svg">
<path d="M15 17.5C19.5135 17.5 23.1667 13.8096 23.1667 9.25C23.1667 4.6904 19.5135 1 15 1C10.4865 1 6.83333 4.6904 6.83333 9.25C6.83333 13.8096 10.4865 17.5 15 17.5ZM20.6 19.8571H19.9948C18.4781 20.5938 16.7937 21.0357 15 21.0357C13.2062 21.0357 11.5292 20.5938 10.0052 19.8571H9.4C4.7625 19.8571 1 23.658 1 28.3429V30.4643C1 32.4163 2.56771 34 4.5 34H25.5C27.4323 34 29 32.4163 29 30.4643V28.3429C29 23.658 25.2375 19.8571 20.6 19.8571Z" stroke="#131921" stroke-width="1.84173"/>
</svg>
