<svg width="17" height="22" viewBox="0 0 17 22" fill="none" xmlns="http://www.w3.org/2000/svg">
<g id="Group 1171280352">
<path id="Vector" d="M5.67754 5.72407C5.52911 5.53358 5.43908 5.29468 5.43908 5.03391C5.43908 4.6474 5.63593 4.30985 5.93102 4.10692L4.8211 1.14608C4.68739 0.789499 5.05959 0.450971 5.40192 0.618892L5.67754 5.72407ZM5.67754 5.72407C4.28437 6.7515 3.10126 8.38643 2.26169 10.1652C1.40426 11.9817 0.9 13.9591 0.9 15.6116C0.9 17.5332 1.59668 19.0337 2.93268 20.0506C4.26445 21.0643 6.21928 21.5882 8.72041 21.5882C11.2175 21.5882 13.1692 21.0643 14.4988 20.0505C15.8327 19.0336 16.5282 17.5331 16.5282 15.6116C16.5282 13.9582 16.0241 11.9795 15.1671 10.1621C14.3279 8.38248 13.1454 6.7471 11.753 5.72058C11.8999 5.5307 11.9891 5.29324 11.9891 5.03395C11.9891 4.64745 11.7922 4.3099 11.4971 4.10696L12.607 1.14619L5.67754 5.72407ZM12.3297 0.592876C12.5685 0.66193 12.6923 0.919269 12.6071 1.14611L12.3297 0.592876ZM12.3297 0.592876C11.0505 0.219838 10.0383 0.49758 9.08439 0.759337M12.3297 0.592876L9.08439 0.759337M9.08439 0.759337L9.07829 0.761009M9.08439 0.759337L9.07829 0.761009M9.07829 0.761009C9.07828 0.761011 9.07827 0.761013 9.07827 0.761016M9.07829 0.761009L9.07827 0.761016M9.07827 0.761016C8.50921 0.916993 7.96879 1.06474 7.38024 1.08249M9.07827 0.761016L7.38024 1.08249M7.38024 1.08249C6.79468 1.10016 6.1578 0.988938 5.40196 0.618912L7.38024 1.08249ZM6.56861 5.31925C6.41154 5.31925 6.28331 5.19102 6.28331 5.03395C6.28331 4.8765 6.4116 4.74832 6.56861 4.74832H10.8596C11.0166 4.74832 11.1449 4.8765 11.1449 5.03395C11.1449 5.19102 11.0167 5.31925 10.8596 5.31925H6.56861ZM9.30133 1.57512C10.0804 1.36165 10.801 1.16567 11.6469 1.30218L10.6715 3.90413H6.75662L5.94428 1.73714C7.27724 2.1308 8.314 1.84617 9.29969 1.57557L9.30133 1.57512ZM8.72037 20.744C7.1124 20.744 5.36394 20.5174 4.02071 19.7624C3.35061 19.3858 2.78269 18.8784 2.38186 18.2026C1.9811 17.527 1.74415 16.6775 1.74415 15.6116C1.74415 14.0512 2.25509 12.1141 3.11473 10.3483C3.96853 8.59447 5.15946 7.02353 6.518 6.15948C6.51804 6.15949 6.51809 6.15949 6.51812 6.1595C6.53111 6.16124 6.54891 6.16344 6.56861 6.16344H10.8596C10.8804 6.16344 10.8993 6.16117 10.9137 6.15926C10.9151 6.15908 10.9164 6.1589 10.9177 6.15873C12.274 7.02247 13.4631 8.59343 14.3156 10.3474C15.1739 12.1135 15.684 14.0509 15.684 15.6116C15.684 17.737 14.744 19.0122 13.4116 19.7624C12.0708 20.5174 10.3255 20.744 8.72037 20.744Z" fill="white" stroke="white" stroke-width="0.2"/>
<path id="Vector_2" d="M8.71226 10.1035C6.71209 10.1035 5.08496 11.7306 5.08496 13.7305C5.08496 15.7303 6.71209 17.3575 8.71226 17.3575C10.714 17.3575 12.3427 15.7303 12.3427 13.7305C12.3427 11.7306 10.714 10.1035 8.71226 10.1035ZM8.71226 16.7133C7.06753 16.7133 5.72915 15.3752 5.72915 13.7305C5.72915 12.0858 7.06753 10.7477 8.71226 10.7477C10.3589 10.7477 11.6985 12.0858 11.6985 13.7305C11.6985 15.3752 10.3589 16.7133 8.71226 16.7133Z" fill="white"/>
<path id="Vector_3" d="M8.65837 12.7467H9.42241C9.60046 12.7467 9.74451 12.6027 9.74451 12.4246C9.74451 12.2466 9.60046 12.1025 9.42241 12.1025H9.03711V11.9676C9.03711 11.7896 8.89306 11.6455 8.71501 11.6455C8.53696 11.6455 8.39292 11.7896 8.39292 11.9676V12.1439C7.98494 12.2603 7.68364 12.6324 7.68364 13.0773C7.68364 13.6148 8.12086 14.0523 8.65841 14.0523C8.69069 14.0523 8.80201 14.0523 8.76977 14.0523C8.95221 14.0523 9.10036 14.2008 9.10036 14.3833C9.10036 14.5657 8.95221 14.7138 8.76977 14.7138H8.00569C7.82764 14.7138 7.68359 14.8579 7.68359 15.0359C7.68359 15.214 7.82764 15.358 8.00569 15.358H8.39288V15.493C8.39288 15.671 8.53692 15.8151 8.71497 15.8151C8.89302 15.8151 9.03707 15.671 9.03707 15.493V15.316C9.44411 15.199 9.74446 14.8275 9.74446 14.3833C9.74446 13.8457 9.30724 13.4082 8.76969 13.4082C8.73741 13.4082 8.62609 13.4082 8.65833 13.4082C8.47589 13.4082 8.32774 13.2597 8.32774 13.0773C8.32774 12.8948 8.47593 12.7467 8.65837 12.7467Z" fill="white"/>
</g>
</svg>
