<svg width="35" height="36" viewBox="0 0 35 36" fill="none" xmlns="http://www.w3.org/2000/svg">
<path d="M34.1 18.0001V18C34.1 8.55877 26.6707 0.9 17.5 0.9C8.32928 0.9 0.9 8.55877 0.9 18C0.9 27.4412 8.32928 35.1 17.5 35.1H17.5001C26.6677 35.0925 34.0927 27.4381 34.1 18.0001ZM19.38 22.0783H19.38V22.08C19.38 22.6356 19.4744 23.2479 19.8493 23.8387C20.2241 24.4294 20.8727 24.9883 21.9622 25.4497C23.0392 25.9058 24.236 26.4162 25.2772 27.0791C26.2973 27.7285 27.158 28.5182 27.6102 29.5353C21.8741 34.8945 13.1258 34.8944 7.38965 29.5352C7.84272 28.5111 8.72902 27.7013 9.77402 27.0348C10.84 26.3549 12.0601 25.8309 13.1299 25.3818C14.2126 24.9274 14.839 24.3853 15.1927 23.8085C15.5464 23.2319 15.62 22.6327 15.62 22.08L15.62 22.0786C15.6048 20.9633 15.1572 19.9 14.376 19.1258L14.3743 19.1242C13.4253 18.2264 12.9135 16.9386 12.9799 15.6114L12.9808 15.6114L12.9796 15.5979C12.8692 14.301 13.2994 13.0175 14.162 12.0679C15.0244 11.1184 16.2374 10.5923 17.4978 10.62L17.4978 10.6201L17.502 10.62C18.7699 10.5948 19.9907 11.1184 20.8673 12.0646C21.7441 13.011 22.1961 14.2933 22.1126 15.6L22.1122 15.6L22.1124 15.6091C22.1483 16.9475 21.6091 18.2334 20.64 19.1231L20.6399 19.1231L20.6375 19.1254C19.8514 19.8973 19.3988 20.9609 19.38 22.0783ZM22.4366 23.9465L22.4364 23.9464C21.647 23.6103 21.2695 23.2812 21.0852 22.9768C20.9018 22.6739 20.9 22.3811 20.9 22.0812C20.9164 21.4062 21.1847 20.7642 21.6483 20.2888C22.9478 19.1056 23.6735 17.3925 23.6325 15.6078C23.7209 13.8869 23.112 12.2047 21.9501 10.963C20.7877 9.72087 19.1762 9.03124 17.5003 9.05998C15.8288 9.02056 14.2197 9.71063 13.0695 10.9588C11.9202 12.2061 11.3361 13.8947 11.4599 15.6084C11.4021 17.3843 12.108 19.0968 13.3901 20.2877C13.8398 20.7695 14.094 21.4108 14.1 22.0804C14.1 22.3656 14.0986 22.6588 13.9007 22.9756C13.7013 23.2948 13.2932 23.6513 12.4446 24.0281C10.3742 24.8813 7.62821 26.0757 6.25056 28.3698C0.856145 22.1614 1.173 12.659 6.99081 6.84744C12.8397 1.00484 22.1339 1.00484 27.9828 6.84744C33.7999 12.6583 34.1174 22.1591 28.725 28.3675C28.0764 27.2386 27.0705 26.3778 25.9614 25.6842C24.816 24.9679 23.553 24.4257 22.448 23.9514L22.4366 23.9465Z" fill="#131921" stroke="#131921" stroke-width="0.2"/>
</svg>
