<svg width="191" height="34" viewBox="0 0 191 34" fill="none" xmlns="http://www.w3.org/2000/svg">
<path d="M20.206 18.6151H34.1819V20.0386H29.9723V33.3977L25.2014 31.7005C25.0143 31.8465 24.7711 31.9925 24.4717 32.1385C22.1892 33.343 19.6447 33.9453 16.8384 33.9453C12.9842 33.9453 9.50432 32.7772 6.39857 30.4412C2.13286 27.1562 0 22.5937 0 16.7536C0 11.6436 1.75867 7.50081 5.27602 4.32528C8.49401 1.44176 12.3481 0 16.8384 0C19.4951 0 22.0021 0.565754 24.3595 1.69726L29.2426 0.711755L29.5232 11.3333H28.0639C27.1659 8.30381 26.1556 6.07729 25.033 4.65378C23.3118 2.57327 20.5241 1.53301 16.67 1.53301C15.6223 1.53301 14.6307 1.64251 13.6952 1.86151C8.30692 3.24852 5.61278 8.28556 5.61278 16.9726C5.6502 27.1197 9.39206 32.2297 16.8384 32.3027C17.1377 32.3027 17.4371 32.2845 17.7364 32.248C20.8796 31.9925 23.3866 30.7697 25.2575 28.5797V20.0386H20.206V18.6151Z" fill="white"/>
<path d="M49.8415 10.9501C48.8686 10.9501 47.9519 11.1691 47.0913 11.6071C44.472 12.8846 43.0688 15.6221 42.8817 19.8196L48.8312 19.9839C50.5525 20.0204 51.8808 19.9474 52.8163 19.7649C54.6124 19.3634 55.5104 18.2501 55.5104 16.4251C55.5104 15.6221 55.3608 14.8739 55.0614 14.1804C54.2008 12.0268 52.4608 10.9501 49.8415 10.9501ZM59.6078 28.1417C59.3833 28.6527 59.1213 29.1637 58.822 29.6747C56.9136 32.5217 53.9389 33.9453 49.8977 33.9453C47.3532 33.9453 45.0894 33.3065 43.1062 32.029C39.7759 29.839 38.1108 26.4809 38.1108 21.9549C38.1108 19.4729 38.6347 17.2464 39.6824 15.2754C41.703 11.4793 45.052 9.58132 49.7293 9.58132C52.1241 9.58132 54.2382 10.1106 56.0717 11.1691C58.6536 12.6291 59.9445 14.6001 59.9445 17.0821C59.9445 18.4326 59.4394 19.4729 58.4291 20.2029C57.1194 21.1154 54.1821 21.5352 49.617 21.4622L42.8817 21.3527C42.9191 22.8857 43.0875 24.2909 43.3868 25.5684C44.3971 30.131 46.8668 32.4122 50.7957 32.4122C51.1325 32.4122 51.4879 32.394 51.8621 32.3575C54.7808 31.9925 56.8949 30.423 58.2046 27.649L59.6078 28.1417Z" fill="white"/>
<path d="M63.0316 11.4976V10.1288H66.9605V4.92754L71.1701 3.77778V10.1288H79.8699V11.4976H71.1701V28.1417C71.2075 30.8792 72.2365 32.2845 74.2571 32.3575C76.0532 32.102 77.419 30.4595 78.3545 27.43L79.8699 27.7037C79.8699 27.7402 79.8699 27.7767 79.8699 27.8132C79.0093 31.9377 76.8577 34 73.4152 34C69.374 33.854 67.2225 31.4997 66.9605 26.9372V11.4976H63.0316Z" fill="white"/>
<path d="M102.745 2.02576H98.5911V17.3011H102.296C102.52 17.3011 102.745 17.3011 102.969 17.3011C106.973 17.0091 108.975 14.4359 108.975 9.58132C108.975 9.07032 108.956 8.57756 108.919 8.10306C108.47 4.05153 106.412 2.02576 102.745 2.02576ZM104.204 33.3977H87.1972V31.9195H91.6874V2.02576H87.1972V0.547504H105.27C107.777 0.547504 109.91 0.967257 111.669 1.80676C114.812 3.30327 116.384 5.78529 116.384 9.25282C116.384 10.7493 116.084 12.1181 115.486 13.3591C113.69 17.0821 109.63 18.9436 103.306 18.9436H98.5911V31.9195H102.688C103.474 31.9925 103.979 32.4852 104.204 33.3977Z" fill="#FFD814"/>
<path d="M140.081 0C144.197 0 147.789 1.11326 150.857 3.33977C155.198 6.4788 157.368 11.0413 157.368 17.0274C157.368 22.0644 155.61 26.1889 152.092 29.401C148.762 32.4305 144.702 33.9453 139.912 33.9453C135.684 33.9453 131.98 32.7407 128.799 30.3317C124.571 27.1197 122.457 22.6119 122.457 16.8084C122.457 11.7713 124.234 7.66506 127.789 4.48953C131.156 1.49651 135.254 0 140.081 0ZM140.081 32.3575C140.979 32.3575 141.821 32.2662 142.607 32.0837C147.246 30.8792 149.566 25.7874 149.566 16.8084C149.566 14.4359 149.398 12.3371 149.061 10.5121C147.976 4.56253 144.927 1.58776 139.912 1.58776C139.576 1.58776 139.22 1.60601 138.846 1.64251C133.121 2.15352 130.258 7.2818 130.258 17.0274C130.258 20.2394 130.558 22.9587 131.156 25.1852C132.466 29.9667 135.441 32.3575 140.081 32.3575Z" fill="#FFD814"/>
<path d="M191 24.4187C191 26.7912 190.139 28.7987 188.418 30.4412C185.948 32.7772 182.412 33.9453 177.81 33.9453C173.881 33.9453 170.457 33.0145 167.539 31.153C167.539 31.8465 167.501 32.3575 167.426 32.686C167.239 33.2335 166.678 33.5072 165.742 33.5072V22.0097H167.763C167.875 23.4332 168.119 24.7472 168.493 25.9517C169.915 30.2222 172.852 32.3575 177.305 32.3575C178.502 32.3575 179.587 32.1567 180.56 31.7552C182.992 30.8062 184.209 29.0542 184.209 26.4992C184.209 25.6597 184.003 24.8567 183.591 24.0902C182.805 22.5572 180.766 21.0059 177.473 19.4364C173.918 17.7209 171.86 16.7171 171.299 16.4251C167.782 14.3446 166.023 11.7713 166.023 8.70531C166.023 6.6613 166.771 4.89104 168.268 3.39453C170.551 1.13151 173.862 0 178.203 0C181.608 0 184.789 0.711755 187.745 2.13527C187.745 1.80676 187.763 1.51476 187.801 1.25926C187.95 0.565754 188.549 0.219002 189.597 0.219002V10.0193H187.576C187.576 8.01181 187.052 6.27805 186.005 4.81804C184.433 2.66452 182.113 1.58776 179.045 1.58776C178.072 1.58776 177.155 1.75201 176.295 2.08052C174.124 2.88352 173.039 4.38003 173.039 6.57005C173.039 7.40956 173.245 8.23081 173.656 9.03382C174.442 10.5303 176.444 12.0633 179.662 13.6329C183.18 15.3119 185.2 16.2974 185.724 16.5894C189.241 18.7064 191 21.3162 191 24.4187Z" fill="#FFD814"/>
</svg>
